<svg viewBox="0 0 140 58" fill="none" xmlns="http://www.w3.org/2000/svg">
  <path d="M0 37.5294H8.08696C9.56522 37.4412 11.0435 37.8824 12.1739 38.8529C13.1304 39.8235 13.6522 41.2353 13.5652 42.6471C13.5652 43.5294 13.3913 44.4118 13.0435 45.1176C12.6957 45.8235 12.087 46.3529 11.3913 46.7941C12 46.8824 12.6956 47.1471 13.2174 47.4118C13.7391 47.6765 14.087 48.0294 14.4348 48.4706C14.7826 48.9118 14.9565 49.3529 15.1304 49.8824C15.3043 50.4118 15.3043 51.0294 15.3043 51.5588C15.3043 52.4412 15.1304 53.2353 14.7826 54.0294C14.4348 54.7353 14 55.3529 13.3913 55.8824C12.7826 56.4118 12.087 56.7647 11.3043 56.9412C10.3478 57.2059 9.47826 57.2941 8.52174 57.2941H0.0869552L0 37.5294ZM5.13043 45.3824H6.60869C8.17391 45.3824 9.04348 44.7647 9.04348 43.4412C9.04348 42.1176 8.26087 41.5 6.60869 41.5H5.13043V45.3824ZM5.13043 53.4118H6.78261C7.73913 53.5 8.69565 53.3235 9.56522 52.8824C10.4348 52.2647 10.6957 51.0294 10 50.1471C9.91304 49.9706 9.73913 49.7941 9.56522 49.7059C8.69565 49.2647 7.73913 49.1765 6.78261 49.1765H5.13043V53.4118ZM36.6087 41.9412H28V45.2941H36.3478V49.7059H28V53.1471H36.6087V57.5588H22.8696V37.5294H36.6087V41.9412ZM49.8261 49.4412L42.6956 37.5294H48.7826L52.4348 43.9706L56.087 37.5294H62.1739L54.8696 49.4412V57.3824H49.8261V49.4412ZM65.3043 47.5C65.3043 46.0882 65.5652 44.6765 66.087 43.3529C67.1304 40.7941 69.2174 38.7647 71.7391 37.7941C74.5217 36.7353 77.6522 36.7353 80.5217 37.7941C81.8261 38.3235 83.0435 39.0294 84 40C84.9565 40.9706 85.7391 42.1176 86.1739 43.3529C87.2174 46 87.2174 49 86.1739 51.6471C85.6522 52.8824 84.8696 54.0294 83.913 55C82.9565 55.9706 81.7391 56.7647 80.4348 57.2059C77.6522 58.2647 74.5217 58.2647 71.6522 57.2059C70.3478 56.6765 69.2174 55.9706 68.2609 55C67.3043 54.0294 66.5217 52.8824 66 51.6471C65.5652 50.3235 65.3043 48.9118 65.3043 47.5ZM70.6087 47.5C70.6087 48.2941 70.7826 49 71.0435 49.7059C71.5652 51.0294 72.6956 52.0882 74 52.6176C76.087 53.5 78.4348 52.9706 80 51.4706C80.5217 50.9412 80.9565 50.4118 81.2174 49.7059C81.8261 48.2941 81.8261 46.7059 81.2174 45.2941C80.9565 44.5882 80.5217 44.0588 80 43.5294C78.3478 42.0294 76.087 41.5882 74 42.3824C72.6956 42.9118 71.6522 43.9706 71.0435 45.3824C70.7826 46 70.6087 46.7059 70.6087 47.5ZM93.6522 57.4706V37.5294H98.7826L108.174 49.7059V37.5294H113.217V57.3824H108.174L98.7826 45.2941V57.4706H93.6522ZM126.783 45.7353L132.957 37.5294H139.217L131.478 46.9706L140 57.4706H133.391L126.783 48.8235V57.4706H121.652V37.5294H126.783V45.7353Z" fill="#32B0A2"/>
</svg>
  