<svg viewBox="0 0 140 58" fill="none" xmlns="http://www.w3.org/2000/svg">
  <path d="M64.0156 21H58C58.1417 20.2696 58.3547 19.5509 58.639 18.8554C59.7726 16.1746 62.0398 14.0484 64.7794 13.0316C66.2909 12.4769 67.8968 12.1996 69.5146 12.1996C71.1323 12.1996 72.7619 12.4769 74.3206 13.0316C75.7376 13.5862 77.0602 14.3258 78.0993 15.3426C79.1384 16.3595 79.9887 17.5612 80.461 18.8554C80.7453 19.5509 80.9583 20.2696 81.1 21H75.1246C75.1089 20.9629 75.0928 20.9259 75.0764 20.8891C74.7929 20.1495 74.3206 19.5949 73.7538 19.0403C71.9589 17.4688 69.5028 17.0066 67.2355 17.8385C65.8185 18.3932 64.6849 19.5025 64.0237 20.9815C64.021 20.9877 64.0183 20.9938 64.0156 21Z" fill="#32B0A2"/>
</svg>
  