<svg viewBox="0 0 140 58" fill="none" xmlns="http://www.w3.org/2000/svg">
  <path d="M58 0C58.1417 0.730357 58.3547 1.44912 58.639 2.14463C59.7726 4.82542 62.0398 6.95156 64.7794 7.96841C66.2909 8.52306 67.8968 8.80038 69.5146 8.80038C71.1323 8.80038 72.7619 8.52306 74.3206 7.96841C75.7376 7.41376 77.0602 6.67424 78.0993 5.65739C79.1384 4.64054 79.9887 3.4388 80.461 2.14463C80.7453 1.44912 80.9583 0.730357 81.1 0H75.1246C75.1089 0.0370875 75.0928 0.0740659 75.0764 0.110929C74.7929 0.850457 74.3206 1.4051 73.7538 1.95975C71.9589 3.53124 69.5028 3.99345 67.2355 3.16148C65.8185 2.60683 64.6849 1.49754 64.0237 0.0184896C64.021 0.0123348 64.0183 0.00617158 64.0156 6.47165e-09L58 0Z" fill="#32B0A2"/>
</svg>
  